<svg width="21" height="17" viewBox="0 0 21 17" fill="none" xmlns="http://www.w3.org/2000/svg">
<rect width="21" height="17" fill="#1E1E1E"/>
<rect width="21" height="17" rx="5" fill="#083E96"/>
<path d="M10.244 3.54V12H7.892V8.604H5.024V12H2.672V3.54H5.024V6.72H7.892V3.54H10.244ZM15.874 12L14.194 8.88H13.942V12H11.59V3.54H15.298C15.978 3.54 16.554 3.66 17.026 3.9C17.498 4.132 17.854 4.456 18.094 4.872C18.334 5.28 18.454 5.74 18.454 6.252C18.454 6.828 18.294 7.336 17.974 7.776C17.662 8.208 17.202 8.516 16.594 8.7L18.502 12H15.874ZM13.942 7.272H15.106C15.426 7.272 15.666 7.196 15.826 7.044C15.986 6.892 16.066 6.672 16.066 6.384C16.066 6.112 15.982 5.9 15.814 5.748C15.654 5.588 15.418 5.508 15.106 5.508H13.942V7.272Z" fill="white"/>
</svg>
